<?xml version="1.0" standalone="no"?>
<!DOCTYPE svg PUBLIC "-//W3C//DTD SVG 20010904//EN"
 "http://www.w3.org/TR/2001/REC-SVG-20010904/DTD/svg10.dtd">
<svg version="1.0" xmlns="http://www.w3.org/2000/svg"
 width="640.000000pt" height="640.000000pt" viewBox="0 0 640.000000 640.000000"
 preserveAspectRatio="xMidYMid meet">
<metadata>
Created by potrace 1.14, written by Peter Selinger 2001-2017
</metadata>
<g transform="translate(0.000000,640.000000) scale(0.100000,-0.100000)"
fill="#000000" stroke="none">
<path d="M0 6389 c0 -17 39 -68 62 -80 17 -9 25 -6 51 22 18 17 50 40 72 50
l40 19 -112 0 c-76 0 -113 -4 -113 -11z"/>
<path d="M1005 6388 c32 -18 56 -47 65 -78 8 -27 6 -30 -13 -30 -13 0 -55 9
-95 20 -77 21 -128 25 -151 11 -8 -5 -21 -30 -30 -56 -16 -46 -21 -50 -110
-96 -51 -26 -114 -51 -139 -55 -88 -13 -191 42 -251 133 l-15 22 -28 -27 c-15
-15 -28 -32 -28 -39 0 -7 -7 -10 -15 -7 -8 4 -15 1 -15 -5 0 -6 8 -11 18 -11
13 0 14 -2 4 -9 -10 -6 -10 -10 3 -21 8 -7 15 -21 15 -32 0 -35 84 -106 190
-160 70 -36 174 -32 262 10 39 18 70 27 73 21 4 -5 4 -96 1 -202 -5 -185 -5
-189 9 -117 7 41 14 112 14 157 1 44 7 139 15 210 8 70 18 159 21 196 l7 68
66 -6 c59 -6 189 -41 247 -66 11 -4 51 -17 88 -28 38 -12 83 -27 100 -35 18
-7 70 -24 117 -36 153 -41 483 -186 635 -278 48 -30 202 -112 209 -112 3 0 1
8 -5 19 -9 14 -9 29 -1 64 7 25 12 57 12 71 0 13 8 38 17 54 17 30 17 32 -6
73 -20 35 -26 63 -31 153 -4 61 -5 119 -2 129 5 20 47 40 106 51 21 4 46 12
55 17 9 5 34 16 56 23 35 13 -54 15 -725 15 -569 0 -760 -2 -745 -11z"/>
<path d="M2911 6338 c-6 -35 -15 -105 -22 -157 -12 -107 -21 -137 -51 -168
l-20 -21 21 -11 c37 -20 39 -39 25 -196 -7 -82 -13 -155 -14 -162 0 -7 -12
-19 -27 -26 -23 -12 5 -14 216 -10 271 6 359 -3 666 -63 238 -47 340 -73 488
-126 70 -25 85 -23 229 40 367 159 886 314 1148 342 105 12 112 13 255 30 134
16 421 18 437 2 9 -9 8 -12 -4 -12 -11 0 -15 -6 -11 -20 3 -11 10 -20 15 -20
7 0 8 -13 4 -32 -4 -18 -9 -123 -12 -233 -9 -397 -38 -543 -212 -1075 -82
-250 -109 -321 -182 -465 -92 -182 -221 -385 -245 -385 -8 0 -22 15 -30 33 -8
17 -13 23 -10 12 3 -10 9 -39 12 -63 7 -52 20 -59 70 -39 l38 16 -32 0 c-40 1
-43 21 -7 50 22 18 40 20 173 20 142 0 182 6 291 41 19 6 90 14 158 17 l122 6
0 538 0 538 -107 -5 c-60 -3 -112 -7 -118 -7 -13 -2 -10 25 10 93 16 53 37
139 56 225 21 98 27 119 28 98 0 -13 7 -23 16 -23 8 0 12 -6 9 -14 -3 -9 4
-19 18 -27 13 -6 27 -18 31 -25 4 -8 19 -14 32 -14 l25 0 0 680 0 680 -1289 0
-1289 0 -6 -77 c-11 -129 -25 -182 -53 -206 -45 -38 -72 -70 -67 -79 3 -5 27
-6 54 -2 41 5 49 4 54 -12 13 -46 9 -481 -5 -490 -8 -4 -292 40 -333 52 -11 4
-70 9 -132 13 -63 4 -116 9 -118 12 -3 3 -8 82 -12 176 l-7 172 27 12 c21 10
40 10 85 1 71 -15 120 -15 197 -1 81 14 88 17 115 41 l24 20 -200 -5 c-231 -5
-244 -2 -268 65 -21 59 -41 191 -33 221 5 21 20 29 91 52 47 15 85 29 85 31 0
2 -90 4 -199 4 l-199 0 -11 -62z"/>
<path d="M960 6075 c0 -2 19 -9 43 -16 34 -9 64 -33 166 -137 133 -136 177
-193 167 -217 -3 -10 1 -15 12 -15 10 0 28 -8 41 -17 33 -23 21 -3 -49 77 -31
36 -79 97 -108 136 -54 74 -125 144 -147 144 -6 0 -22 11 -35 25 -16 17 -34
25 -57 25 -18 0 -33 -2 -33 -5z"/>
<path d="M39 6013 c-40 -105 -39 -46 -39 -1513 l0 -1405 118 -2 c64 -1 146 2
182 8 103 16 313 36 332 31 13 -3 17 -22 22 -100 8 -131 34 -336 51 -397 8
-27 17 -75 21 -105 7 -61 31 -130 45 -130 5 0 9 21 9 48 0 45 10 174 30 398 5
55 15 114 21 130 12 29 12 28 20 -27 10 -68 72 -282 106 -364 24 -58 27 -99 8
-160 -3 -11 2 -5 12 13 9 18 22 31 27 29 6 -2 29 -39 51 -83 52 -103 113 -195
212 -321 l80 -101 6 -74 c9 -110 27 -144 25 -50 0 40 2 75 5 78 3 3 30 -18 59
-47 104 -105 201 -179 216 -164 4 3 -2 36 -12 73 -50 183 -83 386 -92 579 -8
143 -1 174 64 312 56 117 291 311 377 311 89 0 134 -55 121 -149 -4 -30 -3
-52 4 -56 5 -3 17 -19 25 -35 20 -39 3 -90 -30 -90 -23 0 -35 17 -35 51 0 25
-30 25 -63 -1 -14 -11 -34 -20 -45 -20 -26 0 -112 67 -112 88 -1 35 -24 -22
-32 -78 -21 -142 -21 -282 1 -403 13 -66 31 -133 43 -153 25 -43 34 -39 12 5
-26 53 -43 141 -44 227 0 74 2 82 22 92 35 18 88 13 88 -9 0 -52 102 -109 168
-93 72 18 141 116 157 226 4 26 14 53 24 62 16 14 102 48 108 42 2 -2 6 -40
10 -86 4 -56 9 -77 15 -66 5 9 6 20 3 26 -3 5 1 23 9 39 12 23 13 36 5 60 -17
48 -8 247 12 266 14 14 14 21 3 53 -17 48 -17 101 0 133 7 15 11 39 9 53 -5
24 -10 26 -52 26 l-46 0 28 -23 c25 -20 28 -28 25 -71 -2 -27 -8 -51 -14 -53
-6 -2 -26 8 -43 22 -26 23 -31 34 -31 70 0 24 5 47 10 50 6 4 3 16 -10 32 -11
14 -20 35 -21 47 -1 13 -4 8 -9 -13 -5 -20 -4 -56 3 -88 7 -33 8 -56 2 -62 -6
-5 -46 -6 -100 0 -128 12 -247 1 -325 -29 -83 -32 -135 -68 -227 -155 -40 -38
-73 -67 -73 -64 0 16 66 148 127 252 109 187 322 476 415 561 27 25 126 64
163 64 3 0 5 -64 5 -142 0 -148 7 -186 11 -58 1 41 7 106 13 143 9 56 16 71
35 81 23 13 23 13 2 19 -17 4 -21 13 -21 47 0 23 4 49 9 58 4 9 11 46 15 82
l6 65 -20 -59 c-16 -52 -30 -70 -102 -138 -93 -87 -109 -93 -245 -104 -51 -3
-93 -10 -93 -14 0 -11 54 -20 121 -20 33 0 59 -2 59 -5 0 -3 -41 -58 -90 -123
-174 -225 -276 -377 -370 -547 -20 -35 -39 -67 -44 -72 -12 -12 2 110 41 342
34 210 78 397 114 489 11 27 18 53 16 59 -5 15 -104 -288 -112 -343 -4 -25
-15 -76 -26 -115 -95 -360 -120 -851 -63 -1250 9 -60 17 -121 19 -135 7 -53
37 -176 51 -209 17 -41 17 -41 1 -41 -13 0 -133 115 -278 266 -219 228 -391
579 -459 934 -22 112 -23 188 -5 330 2 19 2 26 -1 15 -3 -11 -9 -29 -14 -40
-38 -84 -62 -220 -85 -475 -26 -291 -30 -296 -72 -99 -26 117 -27 139 -27 400
-1 245 -2 275 -16 272 -22 -6 -65 82 -86 176 -19 86 -15 257 7 306 45 101 137
207 211 244 73 37 85 38 91 9 3 -17 19 8 62 97 32 65 53 121 48 122 -31 11
-47 44 -93 196 -90 300 -124 493 -141 804 -10 176 -25 315 -28 256 -1 -13 -19
-36 -44 -56 -80 -65 -92 -70 -168 -68 -86 2 -153 26 -216 79 -27 21 -62 47
-80 55 -55 29 -72 64 -83 179 -14 139 -29 216 -52 261 -22 44 -44 48 -59 10z
m903 -1775 c2 -50 -6 -59 -43 -46 -20 7 -28 15 -25 25 3 8 6 17 6 19 0 3 4 3
8 0 4 -2 17 6 27 19 11 12 21 22 23 20 1 -1 3 -18 4 -37z m1368 -430 c0 -34
-11 -45 -48 -50 -47 -7 -48 6 -5 41 45 37 53 38 53 9z m94 -795 c8 -19 -8 -38
-23 -29 -16 10 -13 46 3 46 8 0 17 -8 20 -17z"/>
<path d="M6020 5689 c-35 -27 -70 -49 -77 -49 -7 0 -13 -4 -13 -9 0 -5 -26
-28 -57 -52 -56 -43 -95 -81 -88 -87 1 -2 43 29 91 68 49 39 115 88 146 108
50 32 75 58 66 67 -2 2 -32 -19 -68 -46z"/>
<path d="M942 5613 c-6 -2 -10 -9 -6 -14 9 -14 41 -10 48 6 5 15 -15 19 -42 8z"/>
<path d="M2728 5583 c6 -2 18 -2 25 0 6 3 1 5 -13 5 -14 0 -19 -2 -12 -5z"/>
<path d="M5635 5367 l-48 -42 104 10 c94 9 98 10 46 13 -61 3 -80 19 -57 47
23 28 2 15 -45 -28z"/>
<path d="M1629 5355 c17 -33 31 -51 31 -40 0 6 -10 21 -21 35 -13 17 -17 18
-10 5z"/>
<path d="M6062 5329 c2 -6 8 -10 13 -10 5 0 11 4 13 10 2 6 -4 11 -13 11 -9 0
-15 -5 -13 -11z"/>
<path d="M6035 5300 c-3 -6 1 -7 9 -4 18 7 21 14 7 14 -6 0 -13 -4 -16 -10z"/>
<path d="M927 5212 c-15 -15 -27 -35 -27 -45 0 -13 5 -14 30 -6 24 9 28 14 21
28 -6 10 -5 23 0 34 14 24 7 21 -24 -11z"/>
<path d="M1150 5217 c0 -13 -9 -32 -20 -42 -11 -10 -20 -23 -20 -29 0 -13 52
50 62 76 5 12 3 18 -7 18 -9 0 -15 -10 -15 -23z"/>
<path d="M1755 5150 c5 -15 0 -29 -17 -47 l-23 -25 38 22 c49 29 51 35 21 55
-25 16 -26 16 -19 -5z"/>
<path d="M1082 5103 c-22 -32 -52 -89 -52 -99 0 -8 48 65 69 105 16 30 6 26
-17 -6z"/>
<path d="M6280 5049 c0 -5 9 -9 20 -9 11 0 20 4 20 8 0 4 -9 8 -20 9 -11 1
-20 -2 -20 -8z"/>
<path d="M1619 5013 c-13 -17 -13 -17 6 -3 11 8 22 16 24 17 2 2 0 3 -6 3 -6
0 -17 -8 -24 -17z"/>
<path d="M5235 4933 c-39 -52 -39 -56 -6 -38 17 8 31 20 31 24 0 5 3 16 6 25
10 25 -9 18 -31 -11z"/>
<path d="M972 4910 c-18 -29 -15 -38 4 -12 9 13 14 25 12 27 -2 2 -9 -5 -16
-15z"/>
<path d="M1212 4833 c1 -16 -2 -41 -6 -58 -7 -29 -7 -29 9 4 17 37 20 81 5 81
-5 0 -9 -12 -8 -27z"/>
<path d="M5149 4818 c-17 -24 -35 -54 -40 -67 -7 -18 -15 -22 -34 -18 l-25 4
25 -31 c14 -17 31 -42 37 -56 7 -14 32 -56 56 -94 24 -38 60 -100 79 -138 20
-38 38 -66 41 -64 7 7 -52 118 -102 191 -45 65 -76 132 -76 164 0 16 14 50 33
77 43 64 49 74 43 74 -3 0 -20 -19 -37 -42z"/>
<path d="M898 4787 c-19 -39 -14 -49 20 -40 24 6 27 14 13 29 -5 5 -11 18 -13
28 -2 15 -7 11 -20 -17z"/>
<path d="M5720 4777 c0 -7 7 -22 15 -33 13 -17 14 -17 15 -1 0 9 8 17 18 17
13 1 11 4 -8 15 -31 18 -40 18 -40 2z"/>
<path d="M5870 4747 c0 -9 -10 -17 -22 -19 -21 -3 -18 -6 20 -33 23 -16 53
-38 65 -48 33 -27 32 -5 -2 45 -38 57 -61 77 -61 55z"/>
<path d="M1175 4688 c-2 -7 -15 -47 -29 -89 -15 -41 -26 -81 -26 -88 0 -7 -11
-35 -25 -62 -13 -27 -22 -49 -20 -49 4 0 74 105 100 149 4 8 2 16 -5 21 -10 6
-10 20 2 69 9 34 14 61 12 61 -3 0 -6 -6 -9 -12z"/>
<path d="M5780 4675 c0 -5 5 -17 10 -25 5 -8 10 -10 10 -5 0 6 -5 17 -10 25
-5 8 -10 11 -10 5z"/>
<path d="M5570 4580 c0 -5 5 -10 10 -10 6 0 10 5 10 10 0 6 -4 10 -10 10 -5 0
-10 -4 -10 -10z"/>
<path d="M5637 4559 c7 -7 15 -10 18 -7 3 3 -2 9 -12 12 -14 6 -15 5 -6 -5z"/>
<path d="M5841 4545 c1 -19 18 -51 18 -35 0 8 -4 22 -9 30 -5 8 -9 11 -9 5z"/>
<path d="M5799 4446 c13 -16 63 -46 76 -46 3 0 5 12 5 26 0 22 -3 24 -14 15
-11 -10 -22 -9 -48 5 -31 16 -32 16 -19 0z"/>
<path d="M5603 4365 c0 -22 2 -30 4 -17 2 12 2 30 0 40 -3 9 -5 -1 -4 -23z"/>
<path d="M1026 4333 c-6 -14 -5 -15 5 -6 7 7 10 15 7 18 -3 3 -9 -2 -12 -12z"/>
<path d="M5290 4331 c0 -5 5 -13 10 -16 6 -3 10 -2 10 4 0 5 -4 13 -10 16 -5
3 -10 2 -10 -4z"/>
<path d="M5445 4198 c3 -29 8 -69 11 -89 9 -57 -11 -55 -46 6 -33 57 -52 77
-25 26 8 -16 24 -56 35 -88 12 -32 30 -78 40 -103 10 -25 21 -54 24 -64 4 -10
9 -16 12 -13 3 3 -1 25 -9 49 -16 45 -27 271 -14 284 12 12 8 23 -13 34 -20
11 -21 9 -15 -42z"/>
<path d="M5575 4107 c15 -21 36 -42 47 -48 16 -9 18 -5 17 38 0 26 -3 41 -6
33 -15 -39 -25 -41 -56 -13 l-30 28 28 -38z"/>
<path d="M4025 3873 c-23 -192 -49 -335 -61 -340 -8 -3 -64 23 -125 57 -61 34
-113 59 -117 56 -3 -4 3 -13 14 -21 38 -29 120 -83 166 -109 l47 -26 -5 -57
c-3 -32 -15 -89 -26 -128 -11 -38 -27 -96 -34 -128 -8 -32 -21 -71 -29 -87
-17 -33 -45 -40 -45 -12 -1 9 -1 87 0 173 0 85 -2 163 -6 172 -12 33 -22 16
-26 -45 -3 -44 -14 -83 -36 -128 -38 -81 -154 -272 -190 -316 -15 -18 -40 -51
-57 -74 -16 -22 -35 -46 -40 -53 -6 -6 -22 -28 -35 -47 -43 -61 -52 -71 -203
-222 -125 -125 -153 -148 -178 -148 -17 0 -38 4 -48 10 -25 13 -94 127 -174
285 -86 171 -116 242 -171 407 -43 131 -52 165 -96 378 -35 165 -36 167 -42
35 -3 -66 -10 -131 -15 -145 -13 -33 -26 -116 -17 -107 4 4 15 37 23 73 9 36
21 66 26 66 6 1 24 -52 41 -118 17 -65 41 -150 54 -189 67 -202 205 -497 305
-650 45 -70 60 -85 80 -85 54 0 113 45 288 221 125 127 177 174 177 159 0 -25
3 -25 48 4 34 23 174 52 192 41 4 -2 3 -26 -1 -52 -13 -77 -10 -81 21 -30 17
26 33 47 36 47 17 0 33 -40 34 -83 0 -79 -63 -183 -125 -207 -30 -12 -81 6
-114 39 l-21 21 -12 -27 c-6 -16 -13 -99 -16 -185 -4 -139 -2 -164 17 -226 11
-39 21 -74 21 -80 0 -15 31 -85 35 -80 2 2 -7 39 -20 81 -28 93 -38 226 -15
212 6 -3 10 0 10 8 0 10 12 14 39 14 37 0 40 -2 56 -45 l18 -44 46 6 c26 3 73
1 106 -5 l60 -11 27 32 c15 18 38 62 51 99 24 63 27 67 73 84 27 10 66 19 88
20 l38 3 -6 -67 c-7 -76 -47 -222 -77 -281 -11 -22 -18 -42 -16 -45 7 -6 43
74 67 147 47 140 70 254 71 351 0 55 4 99 8 99 7 -1 63 -118 81 -170 6 -19 16
-106 22 -192 8 -118 15 -158 24 -158 7 0 32 25 56 56 36 48 42 64 46 115 9
119 -44 288 -127 406 -90 128 -245 227 -428 273 -36 9 -43 15 -43 35 0 37 33
65 76 65 31 0 35 2 24 15 -7 8 -21 15 -31 15 -24 0 -25 44 -5 116 8 27 28 105
46 174 18 69 38 130 46 136 9 7 34 6 86 -5 l74 -15 97 -160 c53 -89 129 -224
169 -301 l72 -140 4 -145 c4 -128 -11 -408 -25 -465 -3 -11 -11 -74 -20 -140
-21 -174 -90 -480 -128 -569 -9 -21 -14 -41 -11 -44 3 -3 23 3 45 13 22 9 44
14 50 11 12 -8 -3 -54 -43 -137 -15 -30 -20 -45 -11 -35 8 11 15 24 15 28 0 5
15 6 33 3 27 -5 43 1 107 47 180 126 341 313 439 506 23 45 45 82 48 82 11 0
-9 -146 -33 -239 -30 -114 -41 -147 -89 -265 -19 -49 -34 -91 -31 -93 10 -10
55 30 106 94 105 130 241 366 322 558 52 122 91 235 85 242 -3 2 -15 -26 -27
-64 -36 -109 -111 -283 -147 -341 -18 -29 -33 -55 -33 -59 0 -10 -230 -352
-241 -359 -25 -15 -18 12 31 121 26 57 99 375 106 460 3 39 10 87 15 108 17
68 -2 60 -50 -20 -62 -101 -94 -146 -161 -224 -81 -94 -242 -239 -313 -281
-34 -20 -75 -47 -92 -61 -48 -39 -85 -60 -92 -53 -4 3 11 68 31 144 48 174 55
204 54 222 0 8 6 60 15 115 56 346 67 483 67 803 0 310 -24 514 -92 787 -16
66 -34 139 -40 163 -5 24 -12 42 -14 40 -4 -4 8 -68 59 -313 13 -66 32 -163
42 -215 19 -108 33 -370 19 -370 -5 0 -20 25 -33 55 -22 52 -113 220 -226 418
l-27 47 26 0 c13 0 28 4 31 10 6 10 -2 14 -72 40 -25 9 -47 36 -99 116 l-66
105 7 119 c7 120 1 163 -10 73z m50 -317 c19 -35 35 -66 35 -71 0 -11 -60 3
-88 21 -22 14 -23 20 -17 62 12 80 19 79 70 -12z m-303 -417 c-2 -30 -7 -58
-11 -62 -4 -4 -25 -10 -46 -14 l-38 -6 38 72 c21 39 43 70 49 68 7 -2 10 -24
8 -58z m-26 -166 c-3 -25 -7 -47 -9 -49 -9 -7 -137 -8 -137 0 0 5 11 29 25 53
25 42 27 43 77 43 l51 0 -7 -47z m63 -3 c-6 -16 -13 -30 -15 -30 -2 0 -4 14
-4 30 0 20 5 30 14 30 12 0 13 -6 5 -30z m13 -525 c-20 -43 -62 -25 -62 26 0
34 27 43 54 18 17 -15 18 -22 8 -44z m1098 -529 c0 -2 -14 -30 -31 -62 -50
-95 -137 -214 -201 -277 -62 -60 -191 -160 -220 -170 -10 -4 -18 -11 -18 -17
0 -6 -4 -9 -9 -6 -9 6 5 72 27 128 6 14 32 41 59 59 124 84 280 225 354 318
21 27 39 39 39 27z"/>
<path d="M816 3885 c-9 -26 -7 -32 5 -12 6 10 9 21 6 23 -2 3 -7 -2 -11 -11z"/>
<path d="M5561 3654 c0 -11 3 -14 6 -6 3 7 2 16 -1 19 -3 4 -6 -2 -5 -13z"/>
<path d="M5823 3553 c9 -2 25 -2 35 0 9 3 1 5 -18 5 -19 0 -27 -2 -17 -5z"/>
<path d="M5918 3553 c6 -2 18 -2 25 0 6 3 1 5 -13 5 -14 0 -19 -2 -12 -5z"/>
<path d="M5714 3542 c5 -8 66 -4 66 4 0 2 -16 4 -36 4 -19 0 -33 -4 -30 -8z"/>
<path d="M5988 3543 c7 -3 16 -2 19 1 4 3 -2 6 -13 5 -11 0 -14 -3 -6 -6z"/>
<path d="M6040 3530 c0 -4 12 -13 28 -19 38 -15 153 -89 175 -112 10 -10 21
-19 25 -19 4 1 -19 24 -50 53 -54 48 -178 117 -178 97z"/>
<path d="M2303 3395 c0 -27 2 -38 4 -22 2 15 2 37 0 50 -2 12 -4 0 -4 -28z"/>
<path d="M901 3344 c0 -11 3 -14 6 -6 3 7 2 16 -1 19 -3 4 -6 -2 -5 -13z"/>
<path d="M6292 3343 c31 -35 75 -147 82 -209 11 -101 -24 -275 -75 -376 -11
-21 -15 -38 -11 -38 11 0 66 118 82 175 6 22 14 97 17 166 l6 126 -37 76 c-20
43 -46 82 -59 88 -21 11 -21 11 -5 -8z"/>
<path d="M5531 3013 c-24 -51 -41 -118 -41 -159 0 -65 54 -160 120 -211 30
-23 68 -53 84 -66 l28 -23 0 -121 c0 -153 -10 -220 -72 -480 -28 -117 -49
-175 -69 -187 -5 -3 -16 9 -24 27 -16 31 -16 31 -10 -43 4 -51 11 -81 23 -95
10 -11 30 -60 45 -110 15 -49 35 -115 45 -145 10 -30 32 -102 50 -160 37 -122
59 -181 59 -161 1 8 -8 42 -18 75 -84 267 -131 436 -131 474 0 29 0 29 98 45
53 9 135 22 182 28 47 6 119 17 160 24 41 7 122 19 180 25 160 16 160 16 160
52 l0 31 -52 -7 c-29 -3 -127 -8 -218 -11 -91 -3 -208 -10 -260 -15 -139 -14
-240 -18 -240 -10 0 4 15 72 34 151 46 193 79 398 89 554 l2 39 125 -2 c155
-4 233 16 312 81 74 60 71 76 -4 23 -79 -55 -101 -64 -193 -77 -86 -12 -203 0
-261 27 -21 9 -67 38 -101 63 -122 89 -154 227 -86 364 7 15 10 27 5 27 -5 0
-15 -12 -21 -27z"/>
<path d="M5436 2878 c-3 -35 -10 -126 -16 -203 -6 -77 -22 -189 -36 -249 -25
-115 -29 -147 -13 -106 29 69 63 302 75 498 7 126 0 171 -10 60z"/>
<path d="M2415 2490 c-3 -5 -1 -10 4 -10 6 0 11 5 11 10 0 6 -2 10 -4 10 -3 0
-8 -4 -11 -10z"/>
<path d="M2413 2435 c0 -22 2 -30 4 -17 2 12 2 30 0 40 -3 9 -5 -1 -4 -23z"/>
<path d="M953 2385 c-3 -9 -3 -18 -1 -21 3 -3 8 4 11 16 6 23 -1 27 -10 5z"/>
<path d="M2402 2365 c0 -16 2 -22 5 -12 2 9 2 23 0 30 -3 6 -5 -1 -5 -18z"/>
<path d="M936 2313 c-4 -21 -13 -61 -21 -89 -14 -47 -17 -51 -40 -46 -14 2
-28 8 -31 13 -3 5 -16 9 -30 9 -14 0 -70 13 -125 30 -82 24 -126 31 -237 35
-117 5 -213 14 -414 40 l-38 5 0 -279 c0 -249 2 -280 16 -285 29 -11 54 4 74
44 25 49 25 50 -6 50 -14 0 -23 4 -19 10 3 5 12 7 20 4 8 -3 25 6 39 20 19 22
24 23 22 9 0 -10 5 -17 11 -16 7 2 31 -7 53 -18 36 -19 51 -21 120 -15 l79 7
11 -43 c15 -53 22 -58 65 -44 27 9 34 15 29 29 -9 27 24 105 49 119 12 6 56
12 98 14 52 2 88 10 111 22 18 10 39 17 46 14 22 -7 62 20 62 41 0 51 8 3 14
-83 l7 -95 -50 -1 c-32 -1 -58 -7 -69 -18 -15 -13 -33 -15 -86 -12 -44 3 -71
0 -79 -8 -6 -7 -20 -15 -29 -19 -27 -10 -22 -36 9 -48 15 -6 30 -15 33 -20 10
-15 134 -12 189 6 11 3 29 2 39 -4 10 -6 24 -6 32 -1 18 11 32 -20 50 -112 12
-59 11 -76 -3 -136 -19 -79 -42 -138 -57 -147 -5 -3 -102 -8 -214 -10 -212 -4
-201 -2 -398 -62 -10 -3 -18 -9 -18 -12 0 -4 -27 -3 -60 2 -49 8 -71 7 -111
-7 -28 -9 -58 -16 -65 -16 -8 0 -14 -9 -14 -20 0 -11 1 -20 3 -20 2 0 55 7
118 15 68 10 140 13 179 10 42 -4 98 -1 160 10 114 20 303 33 330 23 11 -4 22
-3 25 2 4 6 15 10 26 10 21 0 24 -15 10 -69 -43 -165 -85 -393 -106 -576 -24
-199 -14 -186 -135 -180 -118 5 -133 -10 -34 -35 32 -8 61 -17 64 -20 3 -3 16
-5 30 -5 14 0 28 -4 32 -10 4 -5 8 -67 8 -136 0 -128 6 -189 20 -189 4 0 10
111 13 248 7 291 23 423 88 742 37 180 125 460 144 460 9 0 54 -79 61 -107 20
-82 139 -268 241 -374 41 -43 82 -79 90 -79 15 0 14 8 -25 140 -42 147 -59
221 -49 217 5 -1 33 -45 63 -96 52 -90 123 -196 191 -284 18 -23 33 -46 33
-52 0 -22 165 -163 177 -151 4 3 8 43 10 89 1 45 8 166 14 268 14 219 4 209
140 136 89 -49 169 -81 177 -72 3 2 -4 7 -14 11 -51 17 -190 94 -281 155 -57
38 -103 65 -103 60 0 -5 15 -19 34 -31 19 -11 36 -26 39 -33 2 -6 -3 -41 -11
-77 -8 -36 -19 -149 -26 -252 l-11 -187 -65 62 c-82 78 -143 151 -205 246 -70
107 -185 339 -185 374 0 13 -19 37 -30 37 -12 0 10 -178 31 -245 43 -141 60
-209 57 -231 -3 -25 -3 -26 -23 -7 -27 24 -105 119 -105 127 0 7 -51 82 -92
137 -15 19 -37 57 -49 85 -11 27 -30 69 -41 93 -11 24 -36 105 -56 180 l-35
136 -1 250 c-1 175 3 268 12 308 8 32 12 61 9 63 -2 3 -8 -12 -11 -33z m-679
-229 c-3 -3 -12 -4 -19 -1 -8 3 -5 6 6 6 11 1 17 -2 13 -5z m63 -34 c0 -5 -7
-10 -15 -10 -8 0 -15 5 -15 10 0 6 7 10 15 10 8 0 15 -4 15 -10z m-116 -26 c9
-3 16 -12 16 -20 0 -8 -6 -11 -15 -8 -8 4 -13 10 -10 14 3 5 -1 11 -7 13 -7 3
-10 6 -6 6 3 1 13 -2 22 -5z m165 -10 c40 -8 43 -40 4 -48 -101 -20 -130 -15
-117 18 12 30 55 41 113 30z m255 0 c9 -3 16 -12 16 -19 0 -24 -66 -35 -87
-14 -25 25 28 49 71 33z"/>
<path d="M2325 2109 c-4 -6 -5 -12 -2 -15 2 -3 7 2 10 11 7 17 1 20 -8 4z"/>
<path d="M5520 1861 c0 -11 4 -22 9 -25 4 -3 6 6 3 19 -5 30 -12 33 -12 6z"/>
<path d="M1426 1623 c9 -21 18 -45 21 -53 11 -29 75 -113 106 -139 61 -51 73
-61 107 -87 22 -17 16 -8 -16 23 -100 97 -171 182 -198 237 -31 63 -45 76 -20
19z"/>
<path d="M2837 1266 c34 -9 60 -23 77 -42 14 -16 26 -24 26 -18 1 29 -75 74
-122 73 -29 -1 -26 -2 19 -13z"/>
<path d="M4290 1228 c-12 -22 -12 -22 6 -6 10 10 15 20 12 24 -4 3 -12 -5 -18
-18z"/>
<path d="M2945 1160 c3 -5 8 -10 11 -10 2 0 4 5 4 10 0 6 -5 10 -11 10 -5 0
-7 -4 -4 -10z"/>
<path d="M2883 1133 c9 -2 23 -2 30 0 6 3 -1 5 -18 5 -16 0 -22 -2 -12 -5z"/>
<path d="M4101 1049 c-41 -15 -97 -33 -125 -39 -28 -7 -76 -18 -106 -26 -77
-19 -283 -51 -423 -65 -74 -7 -218 -10 -390 -7 -260 5 -280 7 -462 41 -165 32
-391 91 -424 112 -6 3 -11 3 -11 -2 0 -4 23 -18 50 -31 28 -13 50 -28 50 -35
0 -10 -28 -50 -78 -112 -17 -22 -128 -172 -155 -210 -15 -22 -46 -65 -68 -95
-21 -30 -66 -95 -99 -145 -33 -49 -64 -96 -70 -102 -6 -7 -15 -24 -20 -38 -5
-14 -14 -25 -20 -25 -5 0 -10 -5 -10 -11 0 -13 -92 -157 -117 -182 -10 -11
-17 -23 -15 -29 1 -5 -5 -17 -15 -26 -16 -16 -15 -17 10 -20 27 -3 66 28 67
54 0 6 13 29 28 50 15 21 50 75 77 119 87 144 184 286 397 582 66 92 98 122
98 92 0 -6 26 -38 59 -72 l59 -62 5 -170 c5 -158 22 -268 47 -300 4 -5 10 -23
14 -39 4 -15 13 -35 21 -43 8 -8 18 -19 22 -26 10 -16 102 -91 128 -104 25
-14 133 -42 204 -53 108 -18 257 19 326 82 17 16 37 30 45 33 8 3 31 27 50 53
19 26 37 49 40 52 14 14 81 121 103 165 32 64 95 230 103 272 7 37 21 50 89
88 55 30 120 80 177 138 24 23 47 37 64 37 14 0 35 5 46 11 28 15 57 -14 63
-62 6 -44 4 -46 -125 -151 -221 -180 -331 -326 -379 -506 -26 -98 -29 -172 -7
-203 15 -22 15 -22 35 22 12 24 21 50 21 58 0 16 42 95 53 99 4 2 7 8 7 13 0
33 162 221 177 205 3 -3 -8 -38 -25 -78 -37 -86 -55 -204 -46 -295 6 -58 9
-63 30 -63 23 0 24 3 18 42 -5 30 -4 39 4 34 8 -5 12 0 12 13 0 11 -4 23 -10
26 -31 19 8 215 62 313 10 18 18 38 19 45 0 7 16 32 34 57 19 25 47 65 61 90
15 25 39 61 52 80 25 34 25 34 2 15 -12 -11 -51 -58 -86 -105 -34 -47 -73 -92
-85 -100 -73 -48 -226 -222 -283 -321 -25 -43 -32 -20 -17 51 14 66 44 128
107 225 66 102 118 160 191 216 32 24 93 72 136 107 44 34 82 62 86 62 5 0 46
43 92 96 46 54 90 103 98 111 22 23 10 21 -68 -8z m-13 -54 c-6 -14 -15 -25
-19 -25 -5 0 -17 -10 -29 -22 -26 -29 -53 -32 -74 -9 -16 18 -16 20 10 40 15
11 36 21 48 21 11 0 28 5 36 10 29 19 41 12 28 -15z m-1179 -96 c162 -6 323
-8 357 -5 35 4 81 4 103 0 38 -6 41 -9 41 -38 -1 -89 -30 -218 -68 -300 -57
-121 -153 -256 -216 -305 -126 -97 -344 -137 -451 -84 -58 30 -114 84 -139
136 -69 141 -74 354 -12 557 13 45 39 63 76 54 8 -1 148 -8 309 -15z"/>
<path d="M2825 810 c-13 -15 -19 -36 -19 -71 0 -54 13 -74 56 -84 22 -6 33 -1
58 23 24 25 30 39 30 76 0 27 -6 51 -16 60 -23 23 -87 21 -109 -4z"/>
<path d="M2766 415 c-27 -28 -14 -106 21 -119 36 -14 79 73 55 111 -13 21 -58
26 -76 8z"/>
<path d="M4814 1018 c-51 -114 -130 -258 -162 -298 -66 -82 -266 -275 -327
-315 -33 -22 -76 -56 -96 -75 -182 -177 -249 -243 -249 -250 0 -17 -26 -30
-38 -18 -9 9 -12 9 -12 1 0 -6 6 -13 13 -16 10 -4 10 -7 0 -18 -18 -19 -16
-29 6 -29 10 0 36 21 57 48 39 47 171 183 209 213 11 9 30 20 42 23 21 7 28
-4 93 -138 56 -116 74 -146 90 -146 24 0 25 8 5 46 -9 17 -11 30 -5 32 15 5
12 22 -4 22 -19 0 -46 61 -40 91 3 18 2 20 -4 6 -6 -15 -12 -9 -31 34 -18 38
-21 56 -14 68 7 11 7 22 -1 33 -9 15 -5 23 22 47 17 17 32 29 32 27 0 -2 31
28 70 66 38 38 74 66 80 63 5 -3 10 2 10 11 0 9 24 43 53 73 107 116 126 144
196 303 20 45 39 138 29 138 -3 0 -13 -19 -24 -42z"/>
<path d="M5781 1020 c0 -8 4 -24 9 -35 5 -13 9 -14 9 -5 0 8 -4 24 -9 35 -5
13 -9 14 -9 5z"/>
<path d="M5804 945 c3 -11 26 -91 51 -178 25 -87 49 -166 54 -175 20 -39 91
-355 101 -452 14 -124 17 -140 33 -140 8 0 12 24 12 76 0 69 2 78 25 95 69 54
152 134 232 223 l88 100 0 177 0 178 -30 21 c-87 62 -305 18 -430 -87 -46 -38
-59 -29 -95 75 -17 51 -35 96 -40 100 -4 4 -5 -2 -1 -13z"/>
<path d="M2161 747 c-21 -26 -109 -224 -191 -432 -45 -116 -86 -219 -91 -230
-4 -11 -11 -35 -14 -53 -6 -27 -4 -32 12 -32 14 0 25 20 46 83 50 143 128 344
170 437 13 30 33 75 43 100 10 25 24 52 31 61 17 20 29 79 15 79 -5 0 -15 -6
-21 -13z"/>
<path d="M1106 548 c-4 -24 -11 -108 -16 -188 -13 -210 -21 -272 -36 -302 -23
-46 -18 -58 24 -58 l37 0 1 258 c1 141 4 274 7 295 4 20 3 37 -2 37 -5 0 -12
-19 -15 -42z"/>
<path d="M0 454 l0 -34 59 0 c97 0 95 32 -3 54 l-56 13 0 -33z"/>
<path d="M4351 284 c0 -11 3 -14 6 -6 3 7 2 16 -1 19 -3 4 -6 -2 -5 -13z"/>
<path d="M4377 246 c-4 -10 -5 -21 -2 -24 9 -9 17 6 13 25 -3 17 -4 17 -11 -1z"/>
<path d="M3712 185 c0 -16 2 -22 5 -12 2 9 2 23 0 30 -3 6 -5 -1 -5 -18z"/>
<path d="M5600 148 c0 -5 11 -8 25 -8 14 0 25 4 25 9 0 5 -11 8 -25 7 -14 0
-25 -4 -25 -8z"/>
<path d="M5605 120 c-3 -5 -4 -14 -1 -19 3 -5 -1 -25 -9 -45 -8 -19 -15 -40
-15 -46 0 -7 29 -10 80 -9 72 1 79 3 70 19 -6 11 -5 21 3 30 10 10 8 12 -6 7
-20 -7 -47 13 -47 35 0 10 -3 9 -10 -2 -8 -12 -10 -11 -10 6 0 29 -41 46 -55
24z"/>
<path d="M5750 31 c0 -11 4 -22 9 -25 4 -3 6 6 3 19 -5 30 -12 33 -12 6z"/>
</g>
</svg>
